<?xml version="1.0" encoding="utf-8"?>
<!-- Generator: Adobe Illustrator 24.0.1, SVG Export Plug-In . SVG Version: 6.00 Build 0)  -->
<svg version="1.1" id="Calque_1" xmlns="http://www.w3.org/2000/svg" xmlns:xlink="http://www.w3.org/1999/xlink" x="0px" y="0px"
	 viewBox="0 0 172.5 40.5" style="enable-background:new 0 0 172.5 40.5;" width="260" height="62" xml:space="preserve">
<style type="text/css">
	.st0{fill:#2A8D89;}
	.st1{fill:none;}
	.st2{fill:#FFFFFF;}
</style>
<g>
	<rect class="st0" width="102.8" height="40.2"/>
	<rect x="3.2" y="3.3" class="st1" width="31.4" height="34.2"/>
	<path class="st2" d="M31.4,26.5l-2,3c-2.2,3.3-3,4.6-7.3,4.6c-3.7,0-4.5-0.9-4.5-3.3V9.5c0-2.5,0.2-3.4,1.9-3.9l2.9-1V3.3H3.2v34.2
		h31.4v-11H31.4z M8.1,31.4c0,2.5-0.9,2.9-2.6,3.6l-1,0.4V4.8l1,0.4C8,6.3,8.1,6.3,8.1,9.5V31.4z"/>
	<rect x="35.9" y="3.3" class="st1" width="31.4" height="34.2"/>
	<path class="st2" d="M37.9,14.2c0-5.6,3.2-9.3,8.7-10.8H35.9v34.2h6c-2.8-0.8-4.8-2.2-4.8-4.2c0-0.7,0.4-1.3,0.8-1.9l3.5-5.2h1.2
		c0.7,2.6,5.1,9.4,11.6,9.4c2.5,0,4.8-1.8,4.8-4.3C59,23.3,37.9,26.3,37.9,14.2 M60.1,3.3c3.3,0.8,5.1,2.4,5.1,4.4
		c0,0.6-0.5,1.2-0.8,1.8l-2.6,4.2h-1.3c-0.9-2.6-3.3-8.2-9.6-8.2c-2.7,0-4.4,1.6-4.4,3.9c0,6.9,19.6,3.8,19.6,17.3
		c0,5.9-3.1,9.4-8.3,10.9h9.4V3.3H60.1z"/>
	<rect x="68.5" y="3.3" class="st1" width="31.4" height="34.2"/>
	<path class="st2" d="M73.9,3.3v7h3l-8.4,27.1h31.4V3.3H73.9z M98.7,33.4L88.9,4.5h9.8V33.4z M87.2,24.6h-6.8L83.6,13L87.2,24.6z
		 M77.2,36.3l1.6-5.8h10.3l1.8,5.8H77.2z"/>
</g>
<g>
	<path class="st0" d="M115.5,18.2c-0.5,0.4-1.3,0.6-2.1,0.6s-1.6-0.2-2.1-0.6c-0.5-0.4-0.8-1-0.8-1.7V5.9c0-0.8,0.3-1.4,0.8-1.8
		c0.5-0.4,1.2-0.6,2.1-0.6c0.9,0,1.6,0.2,2.1,0.6c0.5,0.4,0.8,0.9,0.8,1.5v2.9c0,0.3-0.2,0.5-0.6,0.6c-0.2,0.1-0.4,0.1-0.6,0.1
		c-0.2,0-0.4,0-0.6-0.1c0-0.4,0.1-0.8,0.1-1.2v-2c0-0.3-0.1-0.5-0.3-0.7c-0.2-0.2-0.5-0.2-0.8-0.2s-0.6,0.1-0.8,0.2
		s-0.3,0.4-0.3,0.7v10.5c0,0.3,0.1,0.5,0.3,0.7c0.2,0.2,0.4,0.3,0.8,0.3s0.6-0.1,0.8-0.2c0.2-0.2,0.3-0.4,0.3-0.7v-0.5l-0.1-1.2
		c0.2,0,0.4-0.1,0.6-0.1c0.2,0,0.4,0,0.6,0.1c0.4,0.1,0.6,0.3,0.6,0.6v1.3C116.3,17.2,116,17.8,115.5,18.2z"/>
	<path class="st0" d="M117.7,16.5V9.5c0-0.8,0.2-1.4,0.7-1.8c0.5-0.4,1.1-0.6,1.9-0.6s1.4,0.2,1.9,0.6s0.7,1,0.7,1.7v6.9
		c0,0.8-0.2,1.4-0.7,1.8s-1.1,0.6-1.9,0.6c-0.8,0-1.4-0.2-1.9-0.6C117.9,17.8,117.7,17.3,117.7,16.5z M119.4,9.5v7
		c0,0.3,0.1,0.5,0.3,0.7s0.4,0.3,0.6,0.3s0.5-0.1,0.6-0.3s0.3-0.4,0.3-0.7v-7c0-0.3-0.1-0.5-0.3-0.7c-0.2-0.2-0.4-0.3-0.6-0.3
		s-0.5,0.1-0.6,0.3C119.5,9,119.4,9.2,119.4,9.5z"/>
	<path class="st0" d="M126.5,16.7c0,0.8,0.1,1.4,0.2,1.9c-0.5,0.1-1,0.1-1.5,0.1c-0.3,0-0.4-0.1-0.4-0.3V9.2c0-0.3-0.1-0.6-0.2-0.7
		c-0.1-0.1-0.3-0.2-0.7-0.2c0-0.4,0.1-0.7,0.3-0.9c0.2-0.2,0.6-0.3,1.1-0.3s0.8,0.2,1,0.7c0.5-0.5,1-0.7,1.7-0.7s1.2,0.3,1.5,0.9
		c0.5-0.6,1.1-0.9,1.7-0.9c0.6,0,1.1,0.2,1.5,0.6c0.3,0.4,0.5,0.9,0.5,1.6v7.4c0,0.3,0.1,0.6,0.2,0.7c0.1,0.1,0.3,0.2,0.7,0.2
		c0,0.4-0.1,0.7-0.3,0.9c-0.2,0.2-0.5,0.3-1,0.3c-0.4,0-0.7-0.1-1-0.4c-0.2-0.3-0.3-0.7-0.3-1.3V9.5c0-0.5-0.2-0.8-0.7-0.8
		c-0.4,0-0.7,0.2-1,0.7v7.3c0,0.8,0.1,1.4,0.2,1.9c-0.5,0.1-1,0.1-1.5,0.1c-0.3,0-0.4-0.1-0.4-0.3V9.5c0-0.5-0.2-0.8-0.7-0.8
		c-0.4,0-0.7,0.2-1,0.7V16.7z"/>
	<path class="st0" d="M137,16.7c0,0.8,0.1,1.4,0.2,1.9c-0.5,0.1-1,0.1-1.5,0.1c-0.3,0-0.4-0.1-0.4-0.3V9.2c0-0.3-0.1-0.6-0.2-0.7
		c-0.1-0.1-0.3-0.2-0.7-0.2c0-0.4,0.1-0.7,0.3-0.9c0.2-0.2,0.6-0.3,1.1-0.3s0.8,0.2,1,0.7c0.5-0.5,1-0.7,1.7-0.7s1.2,0.3,1.5,0.9
		c0.5-0.6,1.1-0.9,1.7-0.9c0.6,0,1.1,0.2,1.5,0.6c0.3,0.4,0.5,0.9,0.5,1.6v7.4c0,0.3,0.1,0.6,0.2,0.7c0.1,0.1,0.3,0.2,0.7,0.2
		c0,0.4-0.1,0.7-0.3,0.9c-0.2,0.2-0.5,0.3-1,0.3c-0.4,0-0.7-0.1-1-0.4c-0.2-0.3-0.3-0.7-0.3-1.3V9.5c0-0.5-0.2-0.8-0.7-0.8
		c-0.4,0-0.7,0.2-1,0.7v7.3c0,0.8,0.1,1.4,0.2,1.9c-0.5,0.1-1,0.1-1.5,0.1c-0.3,0-0.4-0.1-0.4-0.3V9.5c0-0.5-0.2-0.8-0.7-0.8
		c-0.4,0-0.7,0.2-1,0.7V16.7z"/>
	<path class="st0" d="M145.4,16.6V9.4c0-1.5,0.9-2.3,2.7-2.3c1.8,0,2.7,0.8,2.7,2.5c0,0.7-0.1,1.3-0.4,1.9s-0.6,1-1,1.3l-2.2,1.5
		v2.1c0,0.6,0.3,1,0.9,1s0.9-0.4,0.9-1.1v-0.5l-0.1-1.1c0.2,0,0.4-0.1,0.6-0.1s0.4,0,0.6,0.1c0.4,0.1,0.6,0.3,0.6,0.5v1.7
		c0,0.6-0.2,1.1-0.7,1.4c-0.5,0.3-1.1,0.5-1.9,0.5C146.3,18.8,145.4,18.1,145.4,16.6z M149,9.6c0-0.3-0.1-0.5-0.3-0.7
		c-0.2-0.2-0.4-0.3-0.7-0.3c-0.6,0-0.9,0.2-0.9,0.7v3.3l1.1-0.8C148.7,11.4,149,10.7,149,9.6z"/>
	<path class="st0" d="M154,16.7c0,0.6,0.1,1.2,0.2,1.8c-0.5,0.1-1,0.1-1.5,0.1c-0.3,0-0.4-0.1-0.4-0.3V9.2c0-0.3-0.1-0.6-0.2-0.7
		c-0.1-0.1-0.3-0.2-0.7-0.2c0-0.4,0.1-0.7,0.3-0.9c0.2-0.2,0.5-0.3,1-0.3c0.6,0,1,0.3,1.2,0.9c0.4-0.6,0.9-0.9,1.6-0.9
		c1.3,0,1.9,0.6,1.9,1.8v2.3c0,0.3-0.2,0.4-0.6,0.5c-0.2,0.1-0.4,0.1-0.6,0.1s-0.4,0-0.6-0.1c0-0.3,0.1-0.7,0.1-1.1V9.5
		c0-0.5-0.2-0.8-0.7-0.8c-0.2,0-0.4,0.1-0.6,0.3c-0.2,0.2-0.3,0.4-0.4,0.7V16.7z"/>
	<path class="st0" d="M162.7,16.3c0.6,0.3,0.9,0.7,0.9,1.2c0,0.2-0.1,0.3-0.2,0.4c-0.6,0.6-1.5,0.9-2.8,0.9c-1.6,0-2.3-0.9-2.3-2.6
		V9.4c0-1.5,0.9-2.3,2.7-2.3c0.8,0,1.4,0.2,1.8,0.5c0.4,0.4,0.7,0.8,0.7,1.4v1.9c0,0.3-0.2,0.4-0.6,0.5c-0.2,0.1-0.4,0.1-0.6,0.1
		s-0.4,0-0.6-0.1c0-0.3,0.1-0.7,0.1-1.1V9.7c0-0.4-0.1-0.7-0.2-0.8c-0.1-0.2-0.4-0.3-0.7-0.3c-0.6,0-0.9,0.2-0.9,0.7V16
		c0,0.5,0.1,0.8,0.2,1s0.4,0.3,0.8,0.3s0.7-0.1,1-0.3S162.6,16.5,162.7,16.3z"/>
	<path class="st0" d="M164.6,16.6V9.4c0-1.5,0.9-2.3,2.7-2.3c1.8,0,2.7,0.8,2.7,2.5c0,0.7-0.1,1.3-0.4,1.9s-0.6,1-1,1.3l-2.2,1.5
		v2.1c0,0.6,0.3,1,0.9,1s0.9-0.4,0.9-1.1v-0.5l-0.1-1.1c0.2,0,0.4-0.1,0.6-0.1s0.4,0,0.6,0.1c0.4,0.1,0.6,0.3,0.6,0.5v1.7
		c0,0.6-0.2,1.1-0.7,1.4c-0.5,0.3-1.1,0.5-1.9,0.5C165.4,18.8,164.6,18.1,164.6,16.6z M168.1,9.6c0-0.3-0.1-0.5-0.3-0.7
		c-0.2-0.2-0.4-0.3-0.7-0.3c-0.6,0-0.9,0.2-0.9,0.7v3.3l1.1-0.8C167.9,11.4,168.1,10.7,168.1,9.6z"/>
	<path class="st0" d="M115.5,37.2c-0.5,0.4-1.3,0.6-2.1,0.6s-1.6-0.2-2.1-0.6c-0.5-0.4-0.8-1-0.8-1.7V24.9c0-0.8,0.3-1.4,0.8-1.8
		c0.5-0.4,1.2-0.6,2.1-0.6c0.9,0,1.6,0.2,2.1,0.6c0.5,0.4,0.8,0.9,0.8,1.5v2.9c0,0.3-0.2,0.5-0.6,0.6c-0.2,0.1-0.4,0.1-0.6,0.1
		c-0.2,0-0.4,0-0.6-0.1c0-0.4,0.1-0.8,0.1-1.2v-2c0-0.3-0.1-0.5-0.3-0.7c-0.2-0.2-0.5-0.2-0.8-0.2s-0.6,0.1-0.8,0.2
		s-0.3,0.4-0.3,0.7v10.5c0,0.3,0.1,0.5,0.3,0.7c0.2,0.2,0.4,0.3,0.8,0.3s0.6-0.1,0.8-0.2c0.2-0.2,0.3-0.4,0.3-0.7v-0.5l-0.1-1.2
		c0.2,0,0.4-0.1,0.6-0.1c0.2,0,0.4,0,0.6,0.1c0.4,0.1,0.6,0.3,0.6,0.6v1.3C116.3,36.2,116,36.8,115.5,37.2z"/>
	<path class="st0" d="M117.7,35.5v-6.9c0-0.8,0.2-1.4,0.7-1.8c0.5-0.4,1.1-0.6,1.9-0.6s1.4,0.2,1.9,0.6s0.7,1,0.7,1.7v6.9
		c0,0.8-0.2,1.4-0.7,1.8s-1.1,0.6-1.9,0.6c-0.8,0-1.4-0.2-1.9-0.6C117.9,36.8,117.7,36.3,117.7,35.5z M119.4,28.5v7
		c0,0.3,0.1,0.5,0.3,0.7s0.4,0.3,0.6,0.3s0.5-0.1,0.6-0.3s0.3-0.4,0.3-0.7v-7c0-0.3-0.1-0.5-0.3-0.7c-0.2-0.2-0.4-0.3-0.6-0.3
		s-0.5,0.1-0.6,0.3C119.5,28,119.4,28.2,119.4,28.5z"/>
	<path class="st0" d="M126.3,35.7c0,0.6,0.1,1.2,0.2,1.9c-0.5,0.1-1,0.1-1.5,0.1c-0.3,0-0.4-0.1-0.4-0.3v-9.1c0-0.3-0.1-0.6-0.2-0.7
		c-0.1-0.1-0.3-0.2-0.7-0.2c0-0.4,0.1-0.7,0.3-0.9c0.2-0.2,0.6-0.3,1.1-0.3c0.5,0,0.8,0.2,1.1,0.7c0.5-0.5,1.1-0.7,1.6-0.7
		c0.6,0,1.1,0.2,1.4,0.6s0.5,0.9,0.5,1.6v7.4c0,0.3,0.1,0.6,0.2,0.7c0.1,0.1,0.3,0.2,0.7,0.2c0,0.4-0.1,0.7-0.3,0.9
		c-0.2,0.2-0.5,0.3-1,0.3s-0.7-0.1-1-0.4c-0.2-0.3-0.3-0.7-0.3-1.3v-7.7c0-0.5-0.3-0.8-0.8-0.8c-0.4,0-0.8,0.2-1,0.7V35.7z"/>
	<path class="st0" d="M133.3,35.7c0,0.6,0.1,1.2,0.2,1.9c-0.5,0.1-1,0.1-1.5,0.1c-0.3,0-0.4-0.1-0.4-0.3v-9.1c0-0.3-0.1-0.6-0.2-0.7
		c-0.1-0.1-0.3-0.2-0.7-0.2c0-0.4,0.1-0.7,0.3-0.9c0.2-0.2,0.6-0.3,1.1-0.3c0.5,0,0.8,0.2,1.1,0.7c0.5-0.5,1.1-0.7,1.6-0.7
		c0.6,0,1.1,0.2,1.4,0.6s0.5,0.9,0.5,1.6v7.4c0,0.3,0.1,0.6,0.2,0.7c0.1,0.1,0.3,0.2,0.7,0.2c0,0.4-0.1,0.7-0.3,0.9
		c-0.2,0.2-0.5,0.3-1,0.3s-0.7-0.1-1-0.4c-0.2-0.3-0.3-0.7-0.3-1.3v-7.7c0-0.5-0.3-0.8-0.8-0.8c-0.4,0-0.8,0.2-1,0.7V35.7z"/>
	<path class="st0" d="M138.4,35.6v-7.2c0-1.5,0.9-2.3,2.7-2.3c1.8,0,2.7,0.8,2.7,2.5c0,0.7-0.1,1.3-0.4,1.9s-0.6,1-1,1.3l-2.2,1.5
		v2.1c0,0.6,0.3,1,0.9,1s0.9-0.4,0.9-1.1v-0.5l-0.1-1.1c0.2,0,0.4-0.1,0.6-0.1s0.4,0,0.6,0.1c0.4,0.1,0.6,0.3,0.6,0.5v1.7
		c0,0.6-0.2,1.1-0.7,1.4c-0.5,0.3-1.1,0.5-1.9,0.5C139.3,37.8,138.4,37.1,138.4,35.6z M142,28.6c0-0.3-0.1-0.5-0.3-0.7
		c-0.2-0.2-0.4-0.3-0.7-0.3c-0.6,0-0.9,0.2-0.9,0.7v3.3l1.1-0.8C141.7,30.4,142,29.7,142,28.6z"/>
	<path class="st0" d="M149.3,35.3c0.6,0.3,0.9,0.7,0.9,1.2c0,0.2-0.1,0.3-0.2,0.4c-0.6,0.6-1.5,0.9-2.8,0.9c-1.6,0-2.3-0.9-2.3-2.6
		v-6.9c0-1.5,0.9-2.3,2.7-2.3c0.8,0,1.4,0.2,1.8,0.5c0.4,0.4,0.7,0.8,0.7,1.4v1.9c0,0.3-0.2,0.4-0.6,0.5c-0.2,0.1-0.4,0.1-0.6,0.1
		s-0.4,0-0.6-0.1c0-0.3,0.1-0.7,0.1-1.1v-0.8c0-0.4-0.1-0.7-0.2-0.8c-0.1-0.2-0.4-0.3-0.7-0.3c-0.6,0-0.9,0.2-0.9,0.7V35
		c0,0.5,0.1,0.8,0.2,1s0.4,0.3,0.8,0.3s0.7-0.1,1-0.3S149.2,35.5,149.3,35.3z"/>
	<path class="st0" d="M155.7,37.3c-0.5,0.3-1.1,0.5-1.9,0.5s-1.4-0.2-1.8-0.6c-0.5-0.4-0.7-0.9-0.7-1.6v-8l-0.7,0.1
		c-0.1-0.4-0.2-0.7-0.2-1c0-0.3,0.1-0.4,0.3-0.4h0.6l0.3-2.2c0.1-0.3,0.3-0.5,0.9-0.5c0.2,0,0.3,0,0.5,0v2.6h2l1.2-0.1
		c0.1,0.4,0.1,0.7,0.1,1c0,0.3-0.1,0.4-0.3,0.4h-3v7.7c0,0.3,0.1,0.6,0.2,0.7c0.2,0.2,0.4,0.3,0.6,0.3c0.6,0,0.9-0.4,0.9-1.1v-1.7
		l-0.1-1.1c0.2,0,0.4-0.1,0.6-0.1s0.4,0,0.6,0.1c0.4,0.1,0.6,0.3,0.6,0.5v2.8C156.4,36.5,156.2,37,155.7,37.3z"/>
	<path class="st0" d="M157.4,28.4c0-1.5,0.9-2.3,2.7-2.3c1.8,0,2.7,0.8,2.7,2.5c0,0.7-0.1,1.3-0.4,1.9s-0.6,1-1,1.3l-2.2,1.5v2.1
		c0,0.6,0.3,1,0.9,1s0.9-0.4,0.9-1.1v-0.5c0-0.4,0-0.7-0.1-1.1c0.2,0,0.4-0.1,0.6-0.1s0.4,0,0.6,0.1c0.4,0.1,0.6,0.3,0.6,0.5v1.7
		c0,0.6-0.2,1.1-0.7,1.4c-0.5,0.3-1.1,0.5-1.9,0.5c-1.7,0-2.6-0.8-2.6-2.3V28.4z M159.2,28.3v3.3l1.1-0.8c0.5-0.4,0.7-1.1,0.7-2.2
		c0-0.3-0.1-0.5-0.3-0.7c-0.2-0.2-0.4-0.3-0.7-0.3C159.4,27.6,159.2,27.8,159.2,28.3z M160.4,21.8c1.1,0.3,1.6,0.6,1.6,0.8
		c0,0,0,0.1-0.1,0.2l-1.3,2l-0.4,0.7c-0.6-0.2-0.9-0.4-0.9-0.6c0,0,0.3-0.7,0.8-2L160.4,21.8z"/>
</g>
</svg>
